<?xml version="1.0" encoding="UTF-8"?>
<svg id="LOGO" xmlns="http://www.w3.org/2000/svg" viewBox="0 0 1000 1000">
  <defs>
    <style>
      .cls-1 {
        fill: #FAFAFA;
        stroke-width: 0px;
      }

    </style>
  </defs>
  <circle class="cls-1" cx="600.52" cy="418.25" r="42.72"/>
  <circle class="cls-1" cx="399.48" cy="418.25" r="42.72"/>
  <path class="cls-1" d="m854.08,582.65c-2.81-28.37-26.13-50.92-54.57-52.84-34.41-2.33-63.03,24.91-63.03,58.82,0,20.59,10.56,38.69,26.55,49.25,4.9,3.23,7.79,8.79,7.79,14.66v12.51c-2.01,52.89-34.7,96.65-73.15,96.65s-72.6-46.62-72.6-101.79l.07-17.8v-27.88c0-25.87,10.54-51.58,28.75-69.98,39.09-39.46,63.43-93.57,64.02-153.38,1.2-121.12-96.76-221.55-217.88-223.21-121.12,1.66-219.11,102.09-217.9,223.21.58,59.8,24.92,113.92,64.02,153.38,18.21,18.4,28.75,44.11,28.75,69.98v27.88l.07,17.8c0,55.17-32.91,101.79-72.6,101.79s-71.15-43.76-73.15-96.65v-12.51c0-5.87,2.88-11.43,7.79-14.66,15.99-10.56,26.55-28.66,26.55-49.25,0-33.91-28.63-61.15-63.03-58.82-28.44,1.91-51.76,24.47-54.57,52.84-2.17,22.07,7.85,41.95,24.11,53.74,4.61,3.34,7.34,8.67,7.34,14.36v9.15s-.09,0-.09,0c0,1.91.04,3.83.09,5.74,1.11,38.89,13.67,75.48,35.63,103.62,5.2,6.67,10.59,12.51,16.19,17.54,20.9,18.83,44.76,26.71,73.15,26.71,26.67,0,51.93-6.97,73.24-23.41,7.46-5.74,14.42-12.65,20.8-20.84,23.03-29.52,29.87-68.36,29.87-109.36l.09-17.8v-.05l.33-58.07v-25.87c0-13.36,10.85-25.71,24.19-26.57,7.85-.51,14.99,2.47,20.05,7.53,4.69,4.69,7.58,11.18,7.58,18.32v154.51c0,5.87-2.88,11.43-7.79,14.66-15.99,10.56-26.55,28.66-26.55,49.25,0,8.76,1.91,17.07,5.33,24.54,19.54,42.65,81.48,42.65,101.02,0,3.42-7.47,5.33-15.78,5.33-24.54,0-20.59-10.56-38.69-26.55-49.25-4.9-3.23-7.79-8.79-7.79-14.66v-154.51c0-7.15,2.9-13.64,7.58-18.32,4.69-4.69,11.16-7.58,18.32-7.58,14.29,0,25.91,11.6,25.91,25.91v26.58l.33,58.07v.05l.09,17.8c0,41.01,6.84,79.84,29.87,109.36,6.38,8.19,13.35,15.1,20.8,20.84,21.31,16.45,46.57,23.41,73.24,23.41,28.39,0,52.26-7.88,73.15-26.71,5.6-5.03,10.99-10.87,16.19-17.54,21.95-28.13,34.52-64.73,35.63-103.62.05-1.91.09-3.83.09-5.74h-.09v-9.15c0-5.69,2.74-11.02,7.34-14.36,16.26-11.78,26.28-31.67,24.11-53.74Zm-649.5,30.59c-14.55,0-26.15-12.64-24.45-27.5,1.28-11.27,10.45-20.37,21.72-21.59,14.82-1.59,27.35,9.97,27.35,24.47,0,13.58-11.01,24.61-24.61,24.61Zm194.91-115.98c-43.65,0-79.02-35.39-79.02-79.02s37.01-80.61,82.03-78.95c40.95,1.51,74.35,34.86,75.94,75.81,1.73,45.05-34.28,82.16-78.95,82.16Zm120.36,287.43c-6.86,17.69-32.82,17.69-39.7.01-1.07-2.76-1.66-5.76-1.66-8.9s.59-6.13,1.66-8.89c6.87-17.69,32.84-17.68,39.7,0,1.07,2.76,1.66,5.75,1.66,8.89s-.59,6.13-1.65,8.89Zm80.66-287.43c-44.67,0-80.68-37.1-78.95-82.16,1.59-40.95,34.99-74.3,75.94-75.81,45.02-1.66,82.03,34.31,82.03,78.95s-35.37,79.02-79.02,79.02Zm194.53,115.98c-13.12-.2-24.03-11.11-24.23-24.23-.22-14.67,12.39-26.45,27.35-24.85,11.27,1.22,20.44,10.32,21.72,21.59,1.71,14.99-10.1,27.72-24.83,27.49Z"/>
</svg>